<svg viewBox="0 0 390 5440" fill="none" xmlns="http://www.w3.org/2000/svg" preserveAspectRatio="none">
  <path opacity="0.15"
    d="M143.654 1658.13L-164.796 1629.32L-13.9061 298.098L96.3046 788.11L196.858 296.659L255.795 787.021L390.032 295.341L384.412 1135.59L552.984 1651.11L249.984 1655.79L187.753 1657.83L143.654 1658.13Z"
    fill="#FCD34D" />
  <path opacity="0.15"
    d="M155 1576.5L-156.409 1622.83L-7.90611 8.57251L103.188 603.31L202.861 7.51978L262.68 602.513L396.038 6.55519L391.927 1025.75L561.43 1651.62L258.43 1656.3L202.861 1622.83L155 1576.5Z"
    fill="#FCD34D" />
  <rect x="-1022.55" y="3759" width="2572" height="1673" transform="rotate(0.392026 -1022.55 3759)" fill="#10B981" />
  <rect x="-727.885" y="2367" width="2137" height="1287" transform="rotate(8.80653 -727.885 2367)" fill="#FB923C" />
  <rect opacity="0.5" x="-824.469" y="1382" width="2385" height="1111" transform="rotate(11.9231 -824.469 1382)"
    fill="#FBBF24" />
</svg>