<svg className="ico" id="Layer_1" data-name="Layer 1" xmlns="http://www.w3.org/2000/svg" viewBox="10 10 10 10">
  <defs>
    <style>
      .cls-1 {
        fill: #1c8a87;
      }
    </style>
  </defs>
  <path class="cls-1"
    d="M204,2.4c-.26,1.39,1.15,1,1.59,1.17a17,17,0,0,1,11.36,20.51,17.6,17.6,0,0,1-13.52,12.56c-8.79,1.9-18.23-5.23-19.86-14C182,14.24,188.07,5.27,196.21,3.28c.55-.14,1-.15.83-.88Z" />
  <path class="cls-1"
    d="M98.38,2.4c-.34,1.33.94.91,1.38,1.07,7,2.5,11,7.27,12.07,14.69,1,6.86-3.73,13.49-8.46,16.38-9.75,5.94-21,.18-24.7-9.24-3-7.77,1.27-16.53,7.27-19.89,1.64-.91,3.2-2,5.15-2.19.41,0,.52-.42.36-.82Z" />
  <path class="cls-1"
    d="M91.89,292.32c.21-1-.52-.73-1-.89-7.74-2.22-11.89-7.6-12.73-15.32A14,14,0,0,1,81.27,266c4-5.08,9.24-8.11,15.82-7.84,5.39.21,9.57,3,12.54,7.46a15.36,15.36,0,0,1,3,8.45,17.2,17.2,0,0,1-4.24,11.44,17.54,17.54,0,0,1-9.82,5.91c-.52.11-.77.31-.6.86Z" />
  <path class="cls-1" d="M37.36,199.86c0,9.24-7.88,17.48-17.46,17.12a17.05,17.05,0,1,1,17.46-17.12Z" />
  <path class="cls-1" d="M274.84,182.84a17.08,17.08,0,1,1-17,17.11A17.13,17.13,0,0,1,274.84,182.84Z" />
  <path class="cls-1"
    d="M258.05,94.27c-.45-9.49,8.71-17.27,17.13-17,9.53.32,17,7.62,17,17.14,0,9.22-7.35,17.22-18,17C266.09,111.31,257.6,103.52,258.05,94.27Z" />
  <path class="cls-1"
    d="M2.75,94c.5-8.55,8.28-17.25,18.7-16.73,8.58.42,15.88,7.89,15.78,16.41-.11,10.19-7.67,17-17.36,17.17S3.69,104,2.75,94Z" />
  <path class="cls-1"
    d="M199.11,290.15c-9.86-.35-16.25-7.41-16.14-16.23.11-9.23,7.6-16.58,18.27-16.54,10,0,16,7.66,15.93,16.13C217.07,282.8,209.31,289.75,199.11,290.15Z" />
  <path class="cls-1"
    d="M265.55,177.58a27.52,27.52,0,0,1,11.57-2.37,44.1,44.1,0,0,0-8.85-17.66,39.17,39.17,0,0,0-3.48-3.6c-.58-.55-1.18-1.12-1.76-1.7l-2,1.12a61,61,0,0,1-7.23,3.62c-1.44.57-2.88,1.2-4.3,1.82,7.67,3.82,12.64,10.26,14.78,19.18,0,.06,0,.13.05.18a3.56,3.56,0,0,1,1.07-.52Z" />
  <path class="cls-1"
    d="M125.9,260.09a30.13,30.13,0,0,1-9.33,3.79,23.39,23.39,0,0,1,2.88,12.86A46,46,0,0,0,131.26,272c3.43-2,7.7-4.88,10.88-9.1a87.4,87.4,0,0,1-6.55-13A29.55,29.55,0,0,1,125.9,260.09Z" />
  <path class="cls-1"
    d="M235.92,160.07c.92-.35,1.83-.7,2.73-1.07.64-.26,1.27-.55,1.91-.84a18.83,18.83,0,0,1,6.57-2.09l2.22-1c1.87-.82,3.79-1.68,5.73-2.44a60.36,60.36,0,0,0,7.14-3.59c.92-.51,1.85-1,2.78-1.53a5.59,5.59,0,0,1,1.85-2.05l.31-.24,1.22-1c.87-.67,1.7-1.31,2.45-2,6-5.6,9.95-12.74,12.18-21.83l0-.14h0c-.88.06-1.74.09-2.57.09a26.1,26.1,0,0,1-14.09-3.7,33.87,33.87,0,0,1-10.52,17.43l-.5.44c-2.69,2.37-5.74,5-10.12,5.26l-4.49,1.91-13,5.52-2.95,1.28-1.19.52c-1.14.83-2.31,1.61-3.45,2.36a49.66,49.66,0,0,0-6.51,4.86c-10.23,9.58-14.83,21-14.09,35a44.22,44.22,0,0,0,.81,5.67c.14.72.27,1.44.4,2.16,4.07,1.33,8,3,11.87,4.6,2.21.93,4.46,1.88,6.73,2.76-2.87-6.94-5.78-14.12-4.34-22.45a30.09,30.09,0,0,1,11-18.87C229.05,162.69,232.54,161.36,235.92,160.07Z" />
  <path class="cls-1"
    d="M73.33,145.61c16.53-10.6,24-30.7,18.64-50l0-.13L73,87.81l.36.83.39.88c3.06,7.09,5.7,14.13,4.46,22.38a31.87,31.87,0,0,1-7.84,17.2c-3.63,4-8.38,5.89-13,7.7l-1.3.51c-.59.24-1.17.52-1.76.8a13.15,13.15,0,0,1-5.77,1.71h-.09A24.13,24.13,0,0,1,44,141.87l-1.65.64a89.52,89.52,0,0,0-11.39,5.66,3.87,3.87,0,0,1-1.53,1.65l-.13.09A38.88,38.88,0,0,0,16.4,164.78a37,37,0,0,0-3.34,10.33h1.23l1.41,0a20.46,20.46,0,0,1,5.32.57,39.2,39.2,0,0,1,6.81,2.52A29.17,29.17,0,0,1,40,160.56a26.51,26.51,0,0,1,10.57-4.76c2-.83,4-1.64,6-2.45,4.72-1.9,9.6-3.86,14.22-6.13a5.53,5.53,0,0,1,1-.37,3.65,3.65,0,0,1,1.37-1.13Z" />
  <path class="cls-1"
    d="M159.36,256.28l-.22-.34c-1.84-2.84-3.75-5.76-4.08-9.53l-2-4.65-5.6-13.26-1.27-2.94-.54-1.23c-.5-.77-1-1.56-1.47-2.34-1.07-1.72-2.18-3.49-3.37-5.12-8-11-18.72-16.59-31.76-16.59-.74,0-1.48,0-2.23.05a55.78,55.78,0,0,0-9.7,1.61l-1.36.3c-1.44,4.32-3.23,8.53-5,12.6-.9,2.12-1.82,4.29-2.69,6.46,1.2-.44,2.36-.89,3.5-1.4,4.8-2.15,10.59-4.36,17.09-4.36a27.33,27.33,0,0,1,3,.16c6.62.69,12,3.7,16.5,9.21,3.72,4.57,5.79,10,7.79,15.23l.22.56c.26.69.58,1.37.91,2.08a17.31,17.31,0,0,1,1.81,5.49A94,94,0,0,0,147.06,265a3.83,3.83,0,0,1,2.34,1.69c1.78,2.69,4.32,4.64,7,6.72l.1.07a44.39,44.39,0,0,0,18.87,8.39c0-.49,0-1,0-1.46a26.85,26.85,0,0,1,.2-4.52,27.57,27.57,0,0,1,2.45-7.22A27.12,27.12,0,0,1,159.36,256.28Z" />
  <path class="cls-1"
    d="M119.79,20.37a24.79,24.79,0,0,1-2.89,8.31c.58.16,1.15.33,1.72.52A30.58,30.58,0,0,1,134,40.45c2.27,3.13,4.62,6.95,5,11.65a102.2,102.2,0,0,1,4.08,9.37c.65,1.63,1.3,3.27,2,4.88.62,1.44,1.31,2.88,2,4.28.41.87.83,1.73,1.23,2.61.57.72,1.14,1.46,1.7,2.19a46.44,46.44,0,0,0,6.09,6.95c7.21,6.33,15.85,10.08,26.4,11.45a53.28,53.28,0,0,0,7,.46,55.63,55.63,0,0,0,9.83-.89l1.08-2.66q3.24-8,6.46-15.93a15.74,15.74,0,0,0-1.77.77,32,32,0,0,1-14.74,3.67,34,34,0,0,1-8-1,38.55,38.55,0,0,1-18.2-9.62c-3.18-3.06-4.72-6.85-6.21-10.51-.3-.74-.6-1.48-.92-2.21-.16-.37-.33-.73-.5-1.09a11.7,11.7,0,0,1-1.42-4.56l-.21-.53c-2.32-6-4.72-12.17-8.29-17.6a4.64,4.64,0,0,1-2.11-1.75l-.13-.16a43.74,43.74,0,0,0-7.43-7.41,47.94,47.94,0,0,0-16.49-8.24,14.42,14.42,0,0,1-.41,4.58C119.94,19.57,119.86,20,119.79,20.37Z" />
  <path class="cls-1"
    d="M169.3,221.66a30.92,30.92,0,0,1,16.5-6.33c.87-.07,1.76-.11,2.63-.11A34.11,34.11,0,0,1,203.64,219a14.61,14.61,0,0,0,1.85.7,9.49,9.49,0,0,1,4.67,2.7L213,223.5c2.53,1,5.05,2,7.55,3a47,47,0,0,0,9.88,2.83,18.19,18.19,0,0,1,2.41-.14c1.11,0,2.2.07,3.26.14s2.06.14,3.07.14c.43,0,.86,0,1.29,0a46.85,46.85,0,0,0,20.48-6.72A27.16,27.16,0,0,1,254,211a31,31,0,0,1-16.06,4.63,32,32,0,0,1-7.68-1c-2.92-.72-6.13-1.51-8.74-3.68-3.47-1.22-6.88-2.65-10.19-4-4-1.69-8.22-3.45-12.45-4.77l-2.23-.31a53.3,53.3,0,0,0-7.66-.73h-.44c-17,.28-29.66,7.44-38.76,21.89-.16.25-.33.49-.51.74l.19.43c.43,1,.86,2,1.28,3q2.82,6.65,5.62,13.3l.49,1.17c.35-.8.7-1.61,1-2.41C160.27,232.87,163.18,226.3,169.3,221.66Z" />
  <path class="cls-1"
    d="M240.39,138.1l-1.48-.59a62.08,62.08,0,0,1-9-4.11c-9.07-5.37-14.06-13.8-14.81-25-.45-6.61,1.87-12.61,4.2-17.61.27-.58.49-1.21.73-1.87a12.26,12.26,0,0,1,2.53-4.7c.68-1.8,1.43-3.59,2.16-5.32a62.22,62.22,0,0,0,4.11-11.93,13.65,13.65,0,0,0,.2-1.52c0-.42.07-.84.13-1.26a47.74,47.74,0,0,0-.49-14.22,49.49,49.49,0,0,0-6.15-15.6,24.45,24.45,0,0,1-11.76,7.09,30.22,30.22,0,0,1,4.13,21.9c-.56,3.11-1.18,6.64-3.62,9.5l0,0A3.79,3.79,0,0,1,211,74q-3.6,8.93-7.22,17.85l-1.45,3.56c-.16,1.28-.39,2.53-.61,3.75a34.62,34.62,0,0,0-.75,6c-.14,17.89,7,31.12,21.91,40.4l.56-.24,2.94-1.28,13-5.52Z" />
  <path class="cls-1"
    d="M84.84,160.78a41.15,41.15,0,0,0-12-10.61,4.37,4.37,0,0,0-.49.18c-4.74,2.33-9.68,4.32-14.46,6.24l-2.49,1,0,0C61.51,160,67.78,162.53,72.52,168c6.44,7.46,8.74,16.11,7,26.45a38.13,38.13,0,0,1-3.06,9.05c-.36.81-.71,1.62-1,2.44-.18.43-.33.88-.49,1.33a9.52,9.52,0,0,1-2.85,4.81,17.47,17.47,0,0,1-1.85,5.29c-.31.65-.62,1.31-.89,2A56,56,0,0,0,66,231a2.08,2.08,0,0,1,.29,1.43,36.06,36.06,0,0,0,0,10.58,44,44,0,0,0,6.53,18.17,27.44,27.44,0,0,1,11.74-7c-4.28-6.64-5.58-14.3-4-23.33.44-2.46,1-5.39,3.15-7.58l.05-.18c.15-.48.29-1,.47-1.42,1.06-2.77,2.24-5.52,3.37-8.19,1.83-4.31,3.72-8.76,5.17-13.26C96.42,185.88,93.75,172.58,84.84,160.78Z" />
  <path class="cls-1"
    d="M62.71,80.31c2.7.44,5.69.93,8.18,2.9l23.23,9.37a51.31,51.31,0,0,0,13.32,1.86c9.65,0,18.78-3.18,27.14-9.47a42.39,42.39,0,0,0,9.54-10.25c.07-.11.14-.22.2-.33a6.83,6.83,0,0,1,.39-.63c-.25-.54-.51-1.08-.77-1.62-.69-1.43-1.39-2.91-2-4.41-.7-1.65-1.37-3.31-2-5-.8-2-1.63-4.11-2.54-6.14-.34.81-.67,1.65-1,2.5a41.33,41.33,0,0,1-3.72,7.71c-4.09,6.2-8.64,10-14.33,11.94a32,32,0,0,1-10.56,1.72,42.65,42.65,0,0,1-4.83-.29A71,71,0,0,1,84.73,75a4.51,4.51,0,0,1-1.88-1.5,23.58,23.58,0,0,1-4.66-2.37,35,35,0,0,0-14.69-5,2.31,2.31,0,0,1-1.21.35,2.07,2.07,0,0,1-.5-.06,18.22,18.22,0,0,0-4-.4,45.24,45.24,0,0,0-5.4.42A43.54,43.54,0,0,0,34.36,73a26.41,26.41,0,0,1,7,11.57c.46-.29.91-.57,1.4-.83a30.7,30.7,0,0,1,14.73-3.8A32.72,32.72,0,0,1,62.71,80.31Z" />
  <path class="cls-1"
    d="M261.77,72.2a47,47,0,0,0-22.44-6.54c-.43,0-.87,0-1.3,0a47.73,47.73,0,0,0-5.52.32c0,.53-.11,1.09-.22,1.67A66.73,66.73,0,0,1,228,80.22c-.28.66-.56,1.34-.84,2a32.74,32.74,0,0,1,10.29-1.65,38.56,38.56,0,0,1,8.88,1.09,26,26,0,0,1,7.6,3.3C255.57,79.39,258.1,75.29,261.77,72.2Z" />
  <path class="cls-1"
    d="M227.77,247.88a43.56,43.56,0,0,0,1.28-10.53,19.88,19.88,0,0,0-.21-2.35c-.09-.79-.19-1.61-.22-2.45a49.26,49.26,0,0,1-9.4-2.82c-2.39-1-4.81-1.93-7.22-2.88,3.6,9.88,2.87,19.12-2.19,27.51A24.92,24.92,0,0,1,222.34,261,44.71,44.71,0,0,0,227.77,247.88Z" />
  <path class="cls-1"
    d="M84.26,41.35A27,27,0,0,1,72.2,34a46.47,46.47,0,0,0-7.68,28.85,38.63,38.63,0,0,1,15.54,5.38l.87.53a31.09,31.09,0,0,1,.44-22,25.85,25.85,0,0,1,2.11-4.06C83.75,42.23,84,41.79,84.26,41.35Z" />
  <path class="cls-1"
    d="M41.41,210.88A26.39,26.39,0,0,1,34,222.94c8,4.89,15.74,7.28,23.52,7.28a38.17,38.17,0,0,0,5.09-.34,59.15,59.15,0,0,1,3.5-11.82c.29-.73.63-1.45,1-2.17s.68-1.42,1-2.13a23.54,23.54,0,0,1-5.44,1.34c-1.66.15-3.2.22-4.69.22C51.48,215.32,46,213.86,41.41,210.88Z" />
  <path class="cls-1"
    d="M149.8,30.66a83.51,83.51,0,0,1,7.1,14.62c4.57-9.48,11.73-15.27,21.28-17.23a27.2,27.2,0,0,1-3.3-13.66C164.29,17.25,156.07,22.58,149.8,30.66Z" />
  <path class="cls-1"
    d="M44.31,138l-.5-.25a23.86,23.86,0,0,1-4.88-2.95c-6.17-5.18-9.79-10.94-11-17.55-1.18.54-2.35,1.07-3.53,1.58a22,22,0,0,1-8.86,1.53H14.33l.24.82a55.29,55.29,0,0,0,2.58,7.51A47,47,0,0,0,29.62,144.9,92,92,0,0,1,41,139.29c.57-.24,1.16-.46,1.74-.68S43.8,138.21,44.31,138Z" />
  <path class="cls-1" d="M70.93,210.82l-.49.36C70.5,210.91,70.61,210.72,70.93,210.82Z" />
  <path class="cls-1" d="M70.77,210.79c-.2,0-.28.17-.33.39l.49-.36-.16,0Z" />
</svg>